<svg version="1.2" xmlns="http://www.w3.org/2000/svg" viewBox="0 0 788 1037" width="228" height="300">
	<title>logo-no-background-svg</title>
	<style>
		.s0 { fill: #375a82 } 
		.s1 { fill: #ffffff } 
	</style>
	<g id="Layer">
		<g id="Layer">
			<g id="tight-bounds">
				<g id="Layer">
					<g id="Layer">
						<g id="Layer">
							<g id="Layer">
								<g id="Layer">
									<g id="textblocktransform">
										<g id="textblock">
											<g id="Layer">
												<g id="Layer">
													<g id="Layer">
														<g id="Layer">
															<path id="text-0" fill-rule="evenodd" class="s0" d="m1034.9 597.3q0 15.6-6 29.4-5.9 13.7-16.2 24-10.3 10.3-24.2 16.2-13.8 5.9-29.4 5.9h-97.6v-307.8h97.6q15.6 0 29.4 5.9 13.9 5.9 24.2 16.2 10.3 10.4 16.2 24.2 6 13.9 6 29.5zm-27.7 0v-156.5q0-10.3-3.9-19.2-3.9-8.9-10.6-15.7-6.8-6.7-15.7-10.6-9-3.9-19.3-3.9h-68.5v255.1h68.5q10.3 0 19.3-3.9 8.9-3.9 15.7-10.6 6.7-6.6 10.6-15.5 3.9-8.9 3.9-19.2zm262.5-5v9.2q0 15.8-6.4 29.5-6.3 13.7-17 24-10.6 10.4-24.7 16.2-14.1 5.9-29.7 5.9h-22.1q-15.8 0-29.8-5.9-14-5.8-24.7-16.2-10.6-10.3-17-24-6.3-13.7-6.3-29.5v-12.2l27.7-4.5v16.7q0 10.4 4.2 19.3 4.2 8.9 11.2 15.6 7.2 6.8 16.5 10.7 9.3 3.8 19.7 3.8h19.3q10.3 0 19.6-3.8 9.2-3.9 16.3-10.7 7.1-6.7 11.2-15.6 4.2-8.9 4.2-19.3v-9.2q0-15.8-6.2-26.4-6.3-10.4-16.5-17.9-10.3-7.4-23.4-12.6-13-5.1-26.7-10.3-13.7-5.1-26.8-11.3-12.9-6.2-23.3-15.6-10.3-9.3-16.5-22.8-6.2-13.6-6.2-33.3v-5.8q0-15.7 5.9-29.4 5.9-13.7 16.2-24 10.3-10.4 24.2-16.3 13.8-5.9 29.5-5.9h19.8q15.6 0 29.4 5.9 13.8 5.9 24.1 16.3 10.3 10.3 16.2 24 5.9 13.7 5.9 29.4v8l-27.8 4.4v-12.4q0-10.3-3.7-19.2-3.9-8.9-10.6-15.6-6.7-6.7-15.6-10.5-8.9-3.9-19.2-3.9h-17.2q-10.3 0-19.2 3.9-9 3.8-15.7 10.5-6.8 6.7-10.7 15.6-3.8 8.9-3.8 19.2v5.8q0 14.8 6.2 24.9 6.2 10 16.5 17.3 10.4 7.2 23.4 12.4 13 5.3 26.7 10.8 13.7 5.4 26.8 12 13 6.5 23.3 16.1 10.3 9.5 16.5 23.3 6.3 13.7 6.3 33.4zm228.3 9.2q0 15.8-5.9 29.5-5.9 13.7-16.3 24-10.3 10.4-24 16.2-13.7 5.9-29.5 5.9h-21.9q-15.7 0-29.5-5.9-13.9-5.8-24.2-16.2-10.3-10.3-16.2-24-5.8-13.7-5.8-29.5v-236.5h27.7v236.5q0 10.4 3.8 19.3 3.8 8.9 10.6 15.6 6.8 6.8 15.7 10.7 8.9 3.8 19.2 3.8h19.4q10.3 0 19.2-3.8 8.9-3.9 15.5-10.7 6.7-6.7 10.6-15.6 3.9-8.9 3.9-19.3v-236.5h27.7z"/>
														</g>
													</g>
												</g>
											</g>
										</g>
									</g>
								</g>
							</g>
							<g id="Layer">
								<g id="Layer">
									<g id="Layer">
										<g id="icon-0">
											<g id="Layer">
												<path id="Layer" fill-rule="evenodd" class="s1" d="m391.2 1037.8c-2.3 0-6.7 0-8.9-2.2-377.9-167.8-382.3-766.2-382.3-790.5 0-11 8.8-22.1 19.9-22.1 289.5-24.3 349.2-198.7 351.4-207.5 2.2-8.9 11-15.5 22.1-15.5 8.8 0 17.6 6.6 22.1 15.5 2.2 6.6 59.6 183.2 351.3 207.5 11.1 0 19.9 11.1 19.9 22.1 0 26.5-4.4 624.9-382.3 790.5-6.6 2.2-11 2.2-13.2 2.2zm-347-772.8c4.4 103.8 39.8 582.9 347 726.5 307.1-143.6 342.5-622.7 346.9-726.5-216.6-24.3-309.4-130.3-346.9-192.1-37.6 61.8-130.4 167.8-347 192.1z"/>
												<g id="Layer">
													<path id="Layer" fill-rule="evenodd" class="s1" d="m472.9 532.2h-2.2c-11 0-19.9-6.7-22.1-17.7-4.4-28.7-28.7-48.6-57.4-48.6-28.8 0-53.1 19.9-57.5 48.6-2.2 11-11.1 17.7-22.1 17.7h-2.2c-11.1 0-19.9-6.7-22.1-17.7-4.4-28.7-28.7-48.6-57.5-48.6-19.9 0-37.5 11.1-48.6 26.5-6.6 8.9-15.5 13.3-26.5 8.9-8.8-4.5-15.5-13.3-15.5-24.3 15.5-125.9 123.8-223.1 252-223.1 125.9 0 234.2 92.8 251.9 218.6 0 2.3 2.2 4.5 2.2 6.7 0 13.2-8.8 22.1-22.1 22.1-6.6 0-15.5-4.5-17.7-11.1-11-17.7-28.7-26.5-48.6-26.5-28.7 0-53 19.9-57.5 48.6q-9.9 19.9-26.5 19.9zm-81.7-110.4c33.1 0 61.8 15.4 81.7 39.7 19.9-24.3 48.6-39.7 81.8-39.7 11 0 19.9 2.2 30.9 4.4-33.1-75.1-108.3-125.9-192.2-125.9-84 0-159.2 50.8-192.3 125.9 8.8-2.2 19.9-4.4 30.9-4.4 33.2 0 61.9 15.4 81.8 39.7 15.5-24.3 44.2-39.7 77.4-39.7z"/>
													<path id="Layer" class="s1" d="m320.4 832.5c-50.8 0-92.8-42-92.8-92.8 0-13.2 8.9-22 22.1-22 13.3 0 22.1 8.8 22.1 22 0 26.5 22.1 48.6 48.6 48.6 26.6 0 48.7-22.1 48.7-48.6v-280.4c0-13.2 8.8-22.1 22.1-22.1 13.2 0 22.1 8.9 22.1 22.1v280.4c0 50.8-42 92.8-92.9 92.8z"/>
													<path id="Layer" class="s1" d="m391.2 284.9c-13.3 0-22.1-8.9-22.1-22.1v-35.4c0-13.2 8.8-22 22.1-22 13.2 0 22.1 8.8 22.1 22v35.4c0 11-8.9 22.1-22.1 22.1z"/>
												</g>
											</g>
										</g>
									</g>
								</g>
							</g>
						</g>
					</g>
				</g>
			</g>
		</g>
	</g>
</svg>